<?xml version="1.0" encoding="UTF-8"?><svg id="Layer_1" xmlns="http://www.w3.org/2000/svg" viewBox="0 0 199.95 25"><polygon points="41.39 18.07 43.68 18.07 43.68 9.26 48.38 9.26 48.38 18.07 50.67 18.07 50.67 9.26 55.37 9.26 55.37 18.07 57.65 18.07 57.65 7 41.39 7 41.39 18.07" fill="#FFFFFF"/><path d="M66.8,18.07h2.29v-5.03h8.89v-6.04h-11.18v11.07ZM75.69,9.26v1.51h-6.61v-1.51h6.61Z" fill="#FFFFFF"/><polygon points="89.42 7 87.13 7 87.13 18.07 98.31 18.07 98.31 15.8 89.42 15.8 89.42 7" fill="#FFFFFF"/><rect x="106.19" y="7" width="2.29" height="11.07" fill="#FFFFFF"/><polygon points="117.62 18.07 128.8 18.07 128.8 15.8 119.91 15.8 119.91 9.26 128.8 9.26 128.8 7 117.62 7 117.62 18.07" fill="#FFFFFF"/><polygon points="148.12 9.26 152.56 9.26 152.56 18.07 154.84 18.07 154.84 9.26 159.3 9.26 159.3 7 148.12 7 148.12 9.26" fill="#FFFFFF"/><polygon points="168.44 18.07 179.63 18.07 179.63 15.8 170.73 15.8 170.73 13.67 179.63 13.67 179.63 11.41 170.73 11.41 170.73 9.26 179.63 9.26 179.63 7 168.44 7 168.44 18.07" fill="#FFFFFF"/><rect x="136.68" y="7" width="2.29" height="11.07" fill="#FFFFFF"/><rect x="29.95" y="7" width="2.29" height="11.07" fill="#FFFFFF"/><polygon points="199.95 6.28 194.36 11.82 188.77 6.28 188.77 9.6 191.74 12.53 188.77 15.47 188.77 18.78 194.36 13.25 199.95 18.78 199.95 15.47 196.99 12.53 199.95 9.6 199.95 6.28" fill="#FFFFFF"/><path d="M18.4,21.48L2.64,5.73l.43-.43,15.76,15.76s1.3,1.3,2.79-.19.21-2.77.21-2.77L6.05,2.32l.43-.43,4.07,4.07,1.38,1.38,1.28-1.28,4.28-4.28.43.43-5.56,5.56,2.98,2.98,5.56-5.56.43.43-5.56,5.56,1.28,1.28,5.56-5.56s1.28-1.28-.21-2.77-2.79-.19-2.79-.19l-4.26,4.26-.43-.43,4.26-4.26s1.3-1.3-.19-2.79-2.77-.21-2.77-.21l-4.28,4.28L7.75.62s-1.28-1.28-2.77.21-.19,2.79-.19,2.79l15.76,15.76-.43.43L4.37,4.05s-1.3-1.3-2.79.19-.11,2.87-.11,2.87l15.68,15.68-.43.43-5.56-5.56-5.54,5.54-.43-.43,5.54-5.54-2.98-2.98-5.54,5.54-.43-.43,5.54-5.54-1.28-1.28L.51,18.08s-1.28,1.28.21,2.77c1.49,1.49,2.79.19,2.79.19l4.23-4.23.43.43-4.23,4.23s-1.3,1.3.19,2.79,2.77.21,2.77.21l4.26-4.26,4.28,4.28s1.28,1.28,2.77-.21.19-2.79.19-2.79Z"/></svg>