<?xml version="1.0" encoding="UTF-8"?><svg id="Layer_1" xmlns="http://www.w3.org/2000/svg" viewBox="0 0 200 14.7"><polygon points="13.46 13.86 16.15 13.86 16.15 3.5 21.68 3.5 21.68 13.86 24.37 13.86 24.37 3.5 29.9 3.5 29.9 13.86 32.59 13.86 32.59 .84 13.46 .84 13.46 13.86" fill="#FFFFFF"/><path d="M43.35,13.86h2.69v-5.92h10.46V.84h-13.15s0,13.02,0,13.02ZM53.81,3.5v1.78h-7.77v-1.78h7.77Z" fill="#FFFFFF"/><polygon points="69.96 .84 67.27 .84 67.27 13.86 80.42 13.86 80.42 11.2 69.96 11.2 69.96 .84" fill="#FFFFFF"/><rect x="89.69" y=".84" width="2.69" height="13.02" fill="#FFFFFF"/><polygon points="103.14 13.86 116.3 13.86 116.3 11.2 105.83 11.2 105.83 3.5 116.3 3.5 116.3 .84 103.14 .84 103.14 13.86" fill="#FFFFFF"/><polygon points="139.02 3.5 144.24 3.5 144.24 13.86 146.93 13.86 146.93 3.5 152.17 3.5 152.17 .84 139.02 .84 139.02 3.5" fill="#FFFFFF"/><polygon points="162.93 13.86 176.09 13.86 176.09 11.2 165.62 11.2 165.62 8.69 176.09 8.69 176.09 6.03 165.62 6.03 165.62 3.5 176.09 3.5 176.09 .84 162.93 .84 162.93 13.86" fill="#FFFFFF"/><rect x="125.56" y=".84" width="2.69" height="13.02" fill="#FFFFFF"/><rect y=".84" width="2.69" height="13.02" fill="#FFFFFF"/><polygon points="200 0 193.43 6.51 186.85 0 186.85 3.89 190.34 7.35 186.85 10.81 186.85 14.7 193.43 8.19 200 14.7 200 10.81 196.51 7.35 200 3.89 200 0" fill="#FFFFFF"/></svg>