<?xml version="1.0" encoding="UTF-8"?><svg id="Layer_1" xmlns="http://www.w3.org/2000/svg" viewBox="0 0 25 25"><path d="M19.6,21.48L3.84,5.73l.43-.43,15.76,15.76s1.3,1.3,2.79-.19.21-2.77.21-2.77L7.25,2.32l.43-.43,4.07,4.07,1.38,1.38,1.28-1.28,4.28-4.28.43.43-5.56,5.56,2.98,2.98,5.56-5.56.43.43-5.56,5.56,1.28,1.28,5.56-5.56s1.28-1.28-.21-2.77-2.79-.19-2.79-.19l-4.26,4.26-.43-.43,4.26-4.26s1.3-1.3-.19-2.79-2.77-.21-2.77-.21l-4.28,4.28L8.95.62s-1.28-1.28-2.77.21-.19,2.79-.19,2.79l15.76,15.76-.43.43L5.57,4.05s-1.3-1.3-2.79.19-.11,2.87-.11,2.87l15.68,15.68-.43.43-5.56-5.56-5.54,5.54-.43-.43,5.54-5.54-2.98-2.98-5.54,5.54-.43-.43,5.54-5.54-1.28-1.28-5.54,5.54s-1.28,1.28.21,2.77,2.79.19,2.79.19l4.23-4.23.43.43-4.23,4.23s-1.3,1.3.19,2.79,2.77.21,2.77.21l4.26-4.26,4.28,4.28s1.28,1.28,2.77-.21.19-2.79.19-2.79Z"/></svg>